HIERARCHY
ROOT Hips
{
 OFFSET 0.000000 0.000000 0.000000
 CHANNELS 6 Xposition Yposition Zposition Yrotation Xrotation Zrotation
 JOINT Chest
 {
  OFFSET 0.000000 9.585900 0.002600
  CHANNELS 3 Yrotation Xrotation Zrotation
  JOINT Chest2
  {
   OFFSET 0.000000 9.601200 -0.005300
   CHANNELS 3 Yrotation Xrotation Zrotation
   JOINT Chest3
   {
    OFFSET 0.000000 9.561800 0.000000
    CHANNELS 3 Yrotation Xrotation Zrotation
    JOINT Chest4
    {
     OFFSET 0.000000 9.552100 0.000000
     CHANNELS 3 Yrotation Xrotation Zrotation
     JOINT Neck
     {
      OFFSET 0.000000 14.453000 0.000000
      CHANNELS 3 Yrotation Xrotation Zrotation
      JOINT Head
      {
       OFFSET 0.000000 8.936500 -0.011300
       CHANNELS 3 Yrotation Xrotation Zrotation
       End Site
       {
        OFFSET 0.000000 17.073600 -0.006000
       }
      }
     }
     JOINT RightCollar
     {
      OFFSET -2.921100 9.558500 0.000000
      CHANNELS 3 Yrotation Xrotation Zrotation
      JOINT RightShoulder
      {
       OFFSET -13.519700 0.000000 0.000000
       CHANNELS 3 Yrotation Xrotation Zrotation
       JOINT RightElbow
       {
        OFFSET 0.000000 -29.696600 0.000000
        CHANNELS 3 Yrotation Xrotation Zrotation
        JOINT RightWrist
        {
         OFFSET 0.000000 -24.004700 0.000000
         CHANNELS 3 Yrotation Xrotation Zrotation
         End Site
         {
          OFFSET 0.000000 -17.728500 0.000000
         }
        }
       }
      }
     }
     JOINT LeftCollar
     {
      OFFSET 2.921100 9.558500 0.000000
      CHANNELS 3 Yrotation Xrotation Zrotation
      JOINT LeftShoulder
      {
       OFFSET 13.519700 0.000000 0.000000
       CHANNELS 3 Yrotation Xrotation Zrotation
       JOINT LeftElbow
       {
        OFFSET 0.000000 -29.696600 0.000000
        CHANNELS 3 Yrotation Xrotation Zrotation
        JOINT LeftWrist
        {
         OFFSET 0.000000 -24.004700 0.000000
         CHANNELS 3 Yrotation Xrotation Zrotation
         End Site
         {
          OFFSET 0.000000 -17.728500 0.000000
         }
        }
       }
      }
     }
    }
   }
  }
 }
 JOINT RightHip
 {
  OFFSET -7.771700 -0.012900 -0.001300
  CHANNELS 3 Yrotation Xrotation Zrotation
  JOINT RightKnee
  {
   OFFSET 0.000000 -40.869800 0.001200
   CHANNELS 3 Yrotation Xrotation Zrotation
   JOINT RightAnkle
   {
    OFFSET 0.000000 -39.717900 0.002100
    CHANNELS 3 Yrotation Xrotation Zrotation
    JOINT RightToe
    {
     OFFSET 0.000000 -4.965400 11.033500
     CHANNELS 3 Yrotation Xrotation Zrotation
     End Site
     {
      OFFSET 0.000000 -1.423100 5.872300
     }
    }
   }
  }
 }
 JOINT LeftHip
 {
  OFFSET 7.771700 -0.012900 -0.001300
  CHANNELS 3 Yrotation Xrotation Zrotation
  JOINT LeftKnee
  {
   OFFSET 0.000000 -40.869800 0.001200
   CHANNELS 3 Yrotation Xrotation Zrotation
   JOINT LeftAnkle
   {
    OFFSET 0.000000 -39.717900 0.002100
    CHANNELS 3 Yrotation Xrotation Zrotation
    JOINT LeftToe
    {
     OFFSET 0.000000 -4.965400 11.033500
     CHANNELS 3 Yrotation Xrotation Zrotation
     End Site
     {
      OFFSET 0.000000 -1.423100 5.872300
     }
    }
   }
  }
 }
}
MOTION
Frames: 8
Frame Time: 0.008333
0.000000 85.388000 0.000000 0.000000 -5.767877 0.000000 0.000000 11.653817 0.000000 0.000000 -5.885947 0.000000 0.000000 -0.000000 0.000000 0.000000 -0.000000 0.000000 0.000000 12.528835 0.000000 0.000000 0.711642 0.000000 0.000000 -0.000000 0.000000 0.000000 0.000000 -90.000000 0.000000 -2.309062 0.000000 0.000000 2.309062 0.000000 0.000000 -0.000000 0.000000 0.000000 -0.000000 90.000000 0.000000 -2.309062 0.000000 0.000000 2.309062 0.000000 0.000000 8.520406 0.000000 0.000000 1.905762 0.000000 -0.000000 -4.658285 0.000000 0.000000 -0.000000 0.000000 0.000000 8.520406 0.000000 0.000000 1.905762 0.000000 -0.000000 -4.658285 0.000000 0.000000 -0.000000 0.000000
10.055970 49.975883 48.475693 173.458681 -34.377111 -7.198219 6.000511 19.953766 6.951006 0.693198 2.726384 0.682837 1.159916 4.424384 1.127784 5.074822 17.139367 5.032951 -2.956206 18.242898 1.820422 -6.020177 -1.763661 4.300594 -0.833797 -1.180112 -4.396975 1.727199 -4.449318 2.546953 52.291833 -75.801546 -66.354920 2.796258 -5.807966 4.282698 -13.417027 -2.484344 -0.684981 -3.429907 -20.211477 5.287975 -101.233896 -53.714077 116.890250 22.160124 -14.280019 -19.331924 -1.180638 -46.591822 11.497266 -92.839329 85.616698 -81.282882 -3.137337 -10.081435 -4.097500 -0.124378 0.819561 -0.051211 -10.600545 -49.973697 17.480585 -150.622459 80.655851 -158.425677 0.967544 -16.024603 7.384805 -0.339015 -0.806897 -0.144143
10.056205 49.975814 48.472161 173.441176 -34.363447 -7.208756 5.976109 19.992327 6.962671 0.689380 2.735420 0.685167 1.170316 4.410349 1.123900 5.031204 17.195357 5.049395 -2.938967 18.294330 1.841673 -5.992702 -1.667866 4.331110 -0.821990 -1.133727 -4.402134 1.757394 -4.476324 2.582007 52.279968 -75.794825 -66.370235 2.840017 -5.821985 4.226779 -13.471645 -2.531722 -0.703448 -3.523112 -20.475997 5.318636 -101.969744 -53.402097 117.661823 22.959902 -15.254608 -17.798141 -1.190518 -46.605327 11.527654 -92.846225 85.615519 -81.287616 -3.139547 -10.093571 -4.090259 -0.124726 0.825154 -0.060949 -10.610644 -49.989253 17.508418 -150.664774 80.644236 -158.466068 0.977258 -16.029228 7.390635 -0.344694 -0.813680 -0.150426
10.058354 49.975591 48.468124 173.424255 -34.348197 -7.232007 5.976661 20.003029 6.992072 0.657719 2.777596 0.693424 1.197495 4.379069 1.115344 4.972312 17.276039 5.077506 -2.917838 18.347512 1.858246 -5.956452 -1.569445 4.351731 -0.798424 -1.099692 -4.416568 1.775565 -4.490530 2.611996 52.437927 -75.807833 -66.530670 2.866402 -5.816491 4.168818 -13.526505 -2.596324 -0.732043 -3.600067 -20.719384 5.337749 -102.740995 -53.094681 118.473794 23.703131 -16.182978 -16.381858 -1.217092 -46.617580 11.574038 -92.829641 85.617418 -81.264636 -3.136006 -10.104122 -4.091504 -0.133428 0.826251 -0.066178 -10.635103 -50.004913 17.553770 -150.733637 80.631691 -158.527512 0.982717 -16.041651 7.391999 -0.348782 -0.815653 -0.155776
10.059569 49.975150 48.462595 173.409107 -34.335660 -7.248897 5.932490 20.072617 7.007672 0.667318 2.774108 0.693961 1.146159 4.463012 1.138039 4.983224 17.247781 5.058840 -2.896278 18.398318 1.869578 -5.917821 -1.475846 4.362661 -0.767463 -1.071575 -4.430984 1.783000 -4.487690 2.633803 52.618169 -75.834620 -66.700511 2.881814 -5.821624 4.117109 -13.584214 -2.666918 -0.769052 -3.662563 -20.937161 5.345860 -103.520380 -52.783896 119.298473 24.410802 -17.035883 -15.112152 -1.245816 -46.625623 11.610605 -92.827105 85.628152 -81.258216 -3.129380 -10.115397 -4.102833 -0.132474 0.831092 -0.067215 -10.643879 -50.019093 17.577263 -150.818967 80.621358 -158.599627 0.991459 -16.056350 7.388229 -0.349183 -0.815708 -0.157716
10.062044 49.973849 48.457405 173.383340 -34.318171 -7.265131 5.897155 20.137057 7.028418 0.679362 2.768896 0.694910 1.124251 4.503294 1.149162 4.971762 17.257514 5.059352 -2.875891 18.444977 1.877750 -5.880623 -1.390074 4.368468 -0.737562 -1.044572 -4.442836 1.790715 -4.469618 2.649383 52.791796 -75.867550 -66.859212 2.886263 -5.834816 4.076258 -13.645009 -2.734218 -0.809541 -3.709102 -21.127577 5.338531 -104.299220 -52.473901 120.115287 25.102861 -17.831610 -13.982338 -1.262194 -46.644826 11.653349 -92.872459 85.629805 -81.290872 -3.131571 -10.124450 -4.119907 -0.121201 0.835274 -0.062426 -10.648060 -50.040361 17.609181 -150.881770 80.605689 -158.643679 0.995385 -16.071562 7.388154 -0.355841 -0.815612 -0.162900
10.066998 49.972902 48.451405 173.357327 -34.305619 -7.292104 5.884376 20.184415 7.067369 0.676477 2.778644 0.698379 1.119495 4.518435 1.154581 4.947717 17.286195 5.070901 -2.855967 18.490546 1.885220 -5.844067 -1.306287 4.373235 -0.717505 -1.015677 -4.455662 1.803882 -4.441654 2.663558 52.944735 -75.903292 -66.996920 2.884427 -5.850376 4.050138 -13.709617 -2.794520 -0.849382 -3.737737 -21.291349 5.313586 -105.072406 -52.176228 120.917253 25.763158 -18.640730 -12.958183 -1.294015 -46.653331 11.703598 -92.879467 85.646313 -81.276482 -3.118213 -10.136724 -4.159345 -0.090752 0.839248 -0.049005 -10.674286 -50.052061 17.669685 -150.931478 80.585955 -158.685856 1.002964 -16.093279 7.395188 -0.364617 -0.813388 -0.172266
10.069844 49.970830 48.445568 173.331732 -34.285621 -7.303379 5.869129 20.220729 7.090897 0.684677 2.772745 0.697922 1.105252 4.547030 1.165404 4.927821 17.311673 5.084795 -2.835565 18.539352 1.894544 -5.807024 -1.216360 4.381073 -0.711688 -0.982211 -4.467593 1.813944 -4.409799 2.677265 53.066341 -75.940818 -67.094730 2.885671 -5.860839 4.039858 -13.775554 -2.849326 -0.885230 -3.758632 -21.428741 5.275906 -105.823590 -51.885769 121.701010 26.351412 -19.513418 -12.008692 -1.314337 -46.671900 11.742359 -92.934003 85.647261 -81.316945 -3.137786 -10.157619 -4.167491 -0.065786 0.847957 -0.054971 -10.684890 -50.074220 17.705948 -150.993615 80.569616 -158.738096 1.002121 -16.110003 7.394494 -0.357825 -0.811535 -0.170872
